<svg width="1920" height="2277" viewBox="0 -299 1920 1679" fill="none" xmlns="http://www.w3.org/2000/svg">
<path d="M960 619.5L891.195 579.789V500.289L960 460.578L1028.81 500.289V579.789L960 619.5ZM896.643 576.596L960 613.193L1023.36 576.596V503.404L960 466.808L896.643 503.404V576.596Z" fill="white"/>
<path d="M960 669.956L847.53 605.017V475.061L960 410.122L1072.47 475.061V605.017L960 669.956ZM852.978 601.824L960 663.649L1067.02 601.824V478.176L960 416.351L852.978 478.176V601.824Z" fill="white"/>
<path d="M960 720.412L958.599 719.633L803.787 630.245V449.833L959.922 359.666L961.323 360.445L1116.13 449.833V630.245L960 720.412ZM809.314 627.052L960 714.105L1110.69 627.052V452.948L960 365.895L809.314 452.948V627.052Z" fill="white"/>
<path d="M960 770.79L958.599 770.011L760.123 655.395V424.527L959.922 309.132L961.323 309.911L1159.8 424.527V655.395L960 770.79ZM765.649 652.28L960 764.561L1154.35 652.28V427.719L960 315.439L765.649 427.719V652.28Z" fill="white"/>
<path d="M960 821.246L958.599 820.468L716.535 680.623V399.299L717.936 398.52L960.078 258.676L961.479 259.455L1203.62 399.299V680.623L1202.22 681.402L960 821.246ZM721.984 677.509L960.078 815.017L1198.17 677.509V402.492L960.078 264.983L721.984 402.492V677.509Z" fill="white"/>
<path d="M960 871.702L958.599 870.924L672.793 705.851V374.149L674.194 373.37L960 208.298L961.401 209.076L1247.21 374.149V705.851L1245.81 706.63L960 871.702ZM678.241 702.737L960 865.473L1241.76 702.737V377.264L960 214.527L678.241 377.264V702.737Z" fill="white"/>
<path d="M960 922.158L958.599 921.38L629.128 731.079V348.921L630.529 348.142L960 157.842L961.401 158.62L1290.87 348.921V731.079L1289.47 731.858L960 922.158ZM634.576 727.964L960 915.929L1285.42 727.964V352.035L960 164.071L634.576 352.035V727.964Z" fill="white"/>
<path d="M960 972.614L958.599 971.836L585.463 756.307V323.693L586.864 322.914L960 107.385L961.401 108.164L1334.54 323.693V756.307L1333.14 757.086L960 972.614ZM590.912 753.193L960 966.385L1329.09 753.193V326.807L960 113.615L590.912 326.807V753.193Z" fill="white"/>
<path d="M960 1023.07L958.599 1022.29L541.798 781.535V298.465L543.199 297.686L960.078 56.9295L961.479 57.7081L1378.36 298.465V781.535L1376.96 782.314L960 1023.07ZM547.247 778.421L960 1016.84L1372.75 778.421V301.579L960 63.1587L547.247 301.579V778.421Z" fill="white"/>
<path d="M960 1073.53L958.599 1072.75L498.056 806.763V273.237L499.457 272.458L960 6.47333L961.401 7.25197L1421.94 273.237V806.763L1420.54 807.542L960 1073.53ZM503.582 803.649L960 1067.3L1416.42 803.649V276.351L960 12.7025L503.582 276.351V803.649Z" fill="white"/>
<path d="M960 1123.98L958.599 1123.2L454.391 831.991V248.009L455.792 247.23L960 -43.9828L961.401 -43.2041L1465.61 248.009V831.991L1464.21 832.77L960 1123.98ZM459.917 828.877L960 1117.75L1460.08 828.877V251.201L960 -37.6757L459.917 251.201V828.877Z" fill="white"/>
<path d="M960 1174.44L958.599 1173.66L410.726 857.219V222.781L412.127 222.002L960 -94.4389L961.401 -93.6603L1509.27 222.781V857.219L1507.87 857.998L960 1174.44ZM416.252 854.105L960.078 1168.21L1503.9 854.105V225.973L960 -88.2098L416.174 225.895V854.105H416.252Z" fill="white"/>
<path d="M960 1224.89L958.599 1224.12L367.061 882.447V197.552L368.462 196.774L960 -144.895L961.401 -144.116L1552.94 197.552V882.447L1551.54 883.226L960 1224.89ZM372.51 879.333L960 1218.67L1547.49 879.333V200.667L960 -138.666L372.51 200.667V879.333Z" fill="white"/>
<path d="M960 1275.35L958.599 1274.57L323.396 907.675V172.324L324.798 171.546L960 -195.351L961.401 -194.572L1596.6 172.324V907.675L1595.2 908.454L960 1275.35ZM328.845 904.561L960 1269.12L1591.16 904.561V175.439L960 -189.122L328.845 175.439V904.561Z" fill="white"/>
<path d="M960 1325.81L958.599 1325.03L279.654 932.904V147.096L281.055 146.318L960 -245.807L961.401 -245.029L1640.35 147.096V932.904L1638.95 933.682L960 1325.81ZM285.18 929.789L960 1319.58L1634.82 929.789V150.211L960 -239.578L285.18 150.211V929.789Z" fill="white"/>
<path d="M960 1376.26L958.599 1375.48L235.989 958.132V121.868L237.39 121.09L960 -296.263L961.401 -295.485L1684.01 121.868V958.132L1682.61 958.91L960 1376.26ZM241.515 955.017L960 1370.03L1678.48 955.017V124.983L960 -290.034L241.515 124.983V955.017Z" fill="white"/>
<path d="M960 1426.72L958.599 1425.94L192.324 983.36V96.6403L193.725 95.8617L960 -346.719L961.401 -345.941L1727.68 96.6403V983.36L1726.27 984.138L960 1426.72ZM197.85 980.245L960 1420.49L1722.15 980.245V99.7549L960 -340.49L197.85 99.7549V980.245Z" fill="white"/>
<path d="M960 1477.18L958.599 1476.4L148.737 1008.59V71.4123L150.138 70.6336L960.078 -397.176L961.479 -396.397L1771.34 71.4123V1008.59L1769.94 1009.37L960 1477.18ZM154.185 1005.47L960.078 1470.95L1765.97 1005.47V74.5268L960 -390.869L154.185 74.5268V1005.47Z" fill="white"/>
<path d="M960 1527.63L958.599 1526.85L104.994 1033.82V46.1841L106.395 45.4054L960 -447.632L961.401 -446.853L1815.01 46.1841V1033.82L1813.6 1034.59L960 1527.63ZM110.443 1030.7L960 1521.4L1809.56 1030.7V49.2986L960 -441.325L110.443 49.2986V1030.7Z" fill="white"/>
<path d="M960 1578.09L958.599 1577.31L61.3296 1059.04V20.9561L62.7306 20.1774L960 -498.088L961.401 -497.309L1858.67 20.9561V1059.04L1857.27 1059.82L960 1578.09ZM66.778 1055.93L960 1571.86L1853.22 1055.93V24.0706L960 -491.781L66.778 24.0706V1055.93Z" fill="white"/>
<path d="M960 1628.54L958.599 1627.77L17.5869 1084.27V-4.27191L18.9879 -5.05054L960 -548.544L961.401 -547.765L1902.41 -4.27191V1084.27L1901.01 1085.05L960 1628.54ZM23.1131 1081.16L960 1622.31L1896.89 1081.16V-1.15735L960 -542.315L23.1131 -1.15735V1081.16Z" fill="white"/>
<path d="M960 1679L958.599 1678.22L-26 1109.5V-29.5L-24.599 -30.2786L960 -599L961.401 -598.221L1946.08 -29.5V1109.5L1944.68 1110.28L960 1679ZM-20.5516 1106.39L960 1672.77L1940.55 1106.39V-26.3854L960 -592.693L-20.5516 -26.3854V1106.39Z" fill="white"/>
</svg>
