<svg width="60" height="78" viewBox="0 0 60 78" fill="none" xmlns="http://www.w3.org/2000/svg">
<path d="M52 26H48.2857V18.5714C48.2857 13.646 46.3291 8.92226 42.8463 5.43945C39.3634 1.95663 34.6397 0 29.7143 0C24.7888 0 20.0651 1.95663 16.5823 5.43945C13.0995 8.92226 11.1429 13.646 11.1429 18.5714V26H7.42857C5.4602 26.0059 3.57413 26.7904 2.18227 28.1823C0.790417 29.5741 0.0058787 31.4602 0 33.4286V70.5714C0.0058787 72.5398 0.790417 74.4259 2.18227 75.8177C3.57413 77.2096 5.4602 77.9941 7.42857 78H52C53.9684 77.9941 55.8544 77.2096 57.2463 75.8177C58.6382 74.4259 59.4227 72.5398 59.4286 70.5714V33.4286C59.4227 31.4602 58.6382 29.5741 57.2463 28.1823C55.8544 26.7904 53.9684 26.0059 52 26ZM18.2 18.5714C18.2 17.0594 18.4978 15.5621 19.0765 14.1651C19.6551 12.7681 20.5033 11.4988 21.5725 10.4296C22.6417 9.3604 23.911 8.51226 25.308 7.93362C26.7049 7.35497 28.2022 7.05714 29.7143 7.05714C31.2264 7.05714 32.7236 7.35497 34.1206 7.93362C35.5176 8.51226 36.7869 9.3604 37.8561 10.4296C38.9253 11.4988 39.7735 12.7681 40.3521 14.1651C40.9307 15.5621 41.2286 17.0594 41.2286 18.5714V26H18.2V18.5714ZM52 70.5714H7.42857V33.4286H52V70.5714Z" fill="#FF931E"/>
<path d="M19.9783 49.8686V52.1712H15.9824V54.8566H20.5019V57.248H13V45H20.5019V47.3914H15.9824V49.8686H19.9783Z" fill="#FF931E"/>
<path d="M33.2647 57.248H30.2823L25.2912 49.6941V57.248H22.3088V45H25.2912L30.2823 52.5907V45H33.2647V57.248ZM42.2456 57.248H38.5651L34.2813 45H37.3433L40.4053 54.186L43.4673 45H46.5294L42.2456 57.248Z" fill="#FF931E"/>
</svg>
