<svg width="20" height="14" viewBox="0 0 20 14" fill="none" xmlns="http://www.w3.org/2000/svg">
<path opacity="0.5" d="M13.5566 4.01291C13.5566 3.64982 13.851 3.35547 14.2141 3.35547H19.3421C19.7052 3.35547 19.9996 3.64982 19.9996 4.01291V9.14098C19.9996 9.50407 19.7052 9.79842 19.3421 9.79842H14.2141C13.851 9.79842 13.5566 9.50407 13.5566 9.14098V4.01291Z" fill="#FFD4A5"/>
<path d="M17.5167 6.57729C17.5167 6.98502 17.1862 7.31555 16.7785 7.31555C16.3707 7.31555 16.0402 6.98502 16.0402 6.57729C16.0402 6.16957 16.3707 5.83904 16.7785 5.83904C17.1862 5.83904 17.5167 6.16957 17.5167 6.57729Z" stroke="white" stroke-width="0.402685"/>
<rect x="0.402685" y="0.402685" width="12.349" height="12.349" rx="0.939597" fill="#FF931E" fill-opacity="0.05" stroke="#FF931E" stroke-width="0.805369"/>
<circle cx="6.64406" cy="6.50979" r="1.54362" stroke="#FF931E" stroke-width="0.805369"/>
</svg>
