<svg width="240" height="49" viewBox="0 0 240 49" fill="none" xmlns="http://www.w3.org/2000/svg">
<path d="M0 5V10.1407L12.6118 17.4062V31.9714L0 39.2711V44.4118L17.067 34.5417V14.8701L0 5Z" fill="#FF8A00"/>
<path d="M41.2282 10.1407V5L24.1611 14.8701V34.576L41.2282 44.4461V39.3054L28.6164 32.0057V17.4062L41.2282 10.1407Z" fill="#FF8A00"/>
<path d="M85.0784 11V22.56H70.5984V11H65.3984V39H70.5984V27H85.0784V39H90.2784V11H85.0784ZM99.8212 14.12C101.701 14.12 103.021 12.76 103.021 11C103.021 9.36 101.661 8.12 99.8212 8.12C97.9812 8.12 96.6212 9.44 96.6212 11.12C96.6212 12.8 97.9812 14.12 99.8212 14.12ZM97.3012 39H102.301V17.64H97.3012V39ZM124.064 17.64L117.224 33.48L110.584 17.64H105.384L114.544 39H119.704L128.864 17.64H124.064ZM151.483 28.44C151.483 21.76 146.923 17.4 140.683 17.4C134.323 17.4 129.643 21.96 129.643 28.32C129.643 34.68 134.283 39.28 141.443 39.28C145.123 39.28 148.123 38.08 150.043 35.8L147.363 32.72C145.843 34.28 143.963 35.04 141.563 35.04C137.843 35.04 135.243 33.04 134.643 29.92H151.403C151.443 29.44 151.483 28.84 151.483 28.44ZM140.683 21.4C143.963 21.4 146.323 23.52 146.723 26.6H134.603C135.083 23.48 137.443 21.4 140.683 21.4ZM178.046 11V23.48H160.526V11H157.566V39H160.526V26.08H178.046V39H180.966V11H178.046ZM205.625 17.96V29C205.625 33.8 202.865 36.64 198.465 36.64C194.465 36.64 192.145 34.36 192.145 29.88V17.96H189.305V30.16C189.305 36.2 192.825 39.2 198.185 39.2C201.545 39.2 204.265 37.72 205.745 35.16V39H208.465V17.96H205.625ZM227.259 17.8C223.899 17.8 221.019 19.24 219.259 21.96V9.32H216.419V39H219.139V34.84C220.859 37.68 223.779 39.2 227.259 39.2C233.259 39.2 237.739 34.84 237.739 28.48C237.739 22.12 233.259 17.8 227.259 17.8ZM227.059 36.68C222.579 36.68 219.219 33.4 219.219 28.48C219.219 23.56 222.579 20.28 227.059 20.28C231.499 20.28 234.899 23.56 234.899 28.48C234.899 33.4 231.499 36.68 227.059 36.68Z" fill="black"/>
</svg>
