<svg width="119" height="20" viewBox="0 0 119 20" fill="none" xmlns="http://www.w3.org/2000/svg">
<path d="M0 0V2.57059L6.30652 6.20369V13.487L0 17.1373V19.7079L8.53436 14.7723V4.93553L0 0Z" fill="#FF8A00"/>
<path d="M20.6159 2.57059V0L12.0815 4.93553V14.7895L20.6159 19.725V17.1544L14.3094 13.5042V6.20369L20.6159 2.57059Z" fill="#FF8A00"/>
<path d="M42.5436 3.00038V8.78096H35.3029V3.00038H32.7026V17.0018H35.3029V11.0012H42.5436V17.0018H45.1439V3.00038H42.5436Z" fill="black"/>
<path d="M49.9157 4.56054C50.8558 4.56054 51.5159 3.88047 51.5159 3.00038C51.5159 2.1803 50.8358 1.56024 49.9157 1.56024C48.9957 1.56024 48.3156 2.22031 48.3156 3.06039C48.3156 3.90047 48.9957 4.56054 49.9157 4.56054ZM48.6556 17.0018H51.1559V6.32071H48.6556V17.0018Z" fill="black"/>
<path d="M62.0382 6.32071L58.6179 14.2415L55.2975 6.32071H52.6973L57.2777 17.0018H59.858L64.4384 6.32071H62.0382Z" fill="black"/>
<path d="M75.7491 11.7212C75.7491 8.38092 73.4689 6.2007 70.3486 6.2007C67.1682 6.2007 64.828 8.48093 64.828 11.6612C64.828 14.8416 67.1482 17.1418 70.7286 17.1418C72.5688 17.1418 74.0689 16.5417 75.029 15.4016L73.6889 13.8615C72.9288 14.6415 71.9887 15.0216 70.7886 15.0216C68.9284 15.0216 67.6283 14.0215 67.3283 12.4613H75.7091C75.7291 12.2213 75.7491 11.9213 75.7491 11.7212ZM70.3486 8.2009C71.9887 8.2009 73.1688 9.261 73.3689 10.8012H67.3083C67.5483 9.241 68.7284 8.2009 70.3486 8.2009Z" fill="black"/>
<path d="M89.0318 3.00038V9.241H80.2709V3.00038H78.7908V17.0018H80.2709V10.5411H89.0318V17.0018H90.492V3.00038H89.0318Z" fill="black"/>
<path d="M102.823 6.48073V12.0013C102.823 14.4015 101.443 15.8217 99.2424 15.8217C97.2422 15.8217 96.082 14.6815 96.082 12.4413V6.48073H94.6619V12.5813C94.6619 15.6016 96.4221 17.1018 99.1023 17.1018C100.783 17.1018 102.143 16.3617 102.883 15.0816V17.0018H104.243V6.48073H102.823Z" fill="black"/>
<path d="M113.641 6.40072C111.961 6.40072 110.521 7.12079 109.64 8.48093V2.1603H108.22V17.0018H109.58V14.9216C110.44 16.3417 111.901 17.1018 113.641 17.1018C116.641 17.1018 118.881 14.9216 118.881 11.7413C118.881 8.56094 116.641 6.40072 113.641 6.40072ZM113.541 15.8417C111.301 15.8417 109.62 14.2015 109.62 11.7413C109.62 9.28101 111.301 7.64084 113.541 7.64084C115.761 7.64084 117.461 9.28101 117.461 11.7413C117.461 14.2015 115.761 15.8417 113.541 15.8417Z" fill="black"/>
</svg>
