<svg width="240" height="49" viewBox="0 0 240 49" fill="none" xmlns="http://www.w3.org/2000/svg">
<path d="M0 5V10.1407L12.6118 17.4062V31.9714L0 39.2711V44.4118L17.067 34.5417V14.8701L0 5Z" fill="#FF8A00"/>
<path d="M41.2282 10.1407V5L24.1611 14.8701V34.576L41.2282 44.4461V39.3054L28.6164 32.0057V17.4062L41.2282 10.1407Z" fill="#FF8A00"/>
<path d="M85.0784 11H90.2784V39H85.0784V11ZM70.5984 39H65.3984V11H70.5984V39ZM85.4784 27H70.1584V22.56H85.4784V27ZM97.3012 39V17.64H102.301V39H97.3012ZM99.8212 14.12C98.8879 14.12 98.1146 13.8267 97.5012 13.24C96.9146 12.6533 96.6212 11.9467 96.6212 11.12C96.6212 10.2667 96.9146 9.56 97.5012 9C98.1146 8.41333 98.8879 8.12 99.8212 8.12C100.755 8.12 101.515 8.4 102.101 8.96C102.715 9.49333 103.021 10.1733 103.021 11C103.021 11.88 102.728 12.6267 102.141 13.24C101.555 13.8267 100.781 14.12 99.8212 14.12ZM114.544 39L105.384 17.64H110.584L118.464 36.48H115.904L124.064 17.64H128.864L119.704 39H114.544ZM141.443 39.28C139.069 39.28 136.989 38.8133 135.203 37.88C133.443 36.92 132.069 35.6133 131.083 33.96C130.123 32.3067 129.643 30.4267 129.643 28.32C129.643 26.1867 130.109 24.3067 131.043 22.68C132.003 21.0267 133.309 19.7333 134.963 18.8C136.643 17.8667 138.549 17.4 140.683 17.4C142.763 17.4 144.616 17.8533 146.243 18.76C147.869 19.6667 149.149 20.9467 150.083 22.6C151.016 24.2533 151.483 26.2 151.483 28.44C151.483 28.6533 151.469 28.8933 151.443 29.16C151.443 29.4267 151.429 29.68 151.403 29.92H133.603V26.6H148.763L146.803 27.64C146.829 26.4133 146.576 25.3333 146.043 24.4C145.509 23.4667 144.776 22.7333 143.843 22.2C142.936 21.6667 141.883 21.4 140.683 21.4C139.456 21.4 138.376 21.6667 137.443 22.2C136.536 22.7333 135.816 23.48 135.283 24.44C134.776 25.3733 134.523 26.48 134.523 27.76V28.56C134.523 29.84 134.816 30.9733 135.403 31.96C135.989 32.9467 136.816 33.7067 137.883 34.24C138.949 34.7733 140.176 35.04 141.563 35.04C142.763 35.04 143.843 34.8533 144.803 34.48C145.763 34.1067 146.616 33.52 147.363 32.72L150.043 35.8C149.083 36.92 147.869 37.7867 146.403 38.4C144.963 38.9867 143.309 39.28 141.443 39.28ZM178.046 11H180.966V39H178.046V11ZM160.526 39H157.566V11H160.526V39ZM178.326 26.08H160.206V23.48H178.326V26.08ZM198.185 39.2C196.398 39.2 194.838 38.8667 193.505 38.2C192.171 37.5333 191.131 36.5333 190.385 35.2C189.665 33.8667 189.305 32.2 189.305 30.2V18H192.145V29.88C192.145 32.12 192.691 33.8133 193.785 34.96C194.905 36.08 196.465 36.64 198.465 36.64C199.931 36.64 201.198 36.3467 202.265 35.76C203.358 35.1467 204.185 34.2667 204.745 33.12C205.331 31.9733 205.625 30.6 205.625 29V18H208.465V39H205.745V33.24L206.185 34.28C205.518 35.8267 204.478 37.04 203.065 37.92C201.678 38.7733 200.051 39.2 198.185 39.2ZM227.22 39.2C225.38 39.2 223.726 38.7867 222.26 37.96C220.793 37.1067 219.633 35.88 218.78 34.28C217.926 32.68 217.5 30.7467 217.5 28.48C217.5 26.1867 217.926 24.2533 218.78 22.68C219.66 21.08 220.833 19.8667 222.3 19.04C223.766 18.2133 225.406 17.8 227.22 17.8C229.22 17.8 231.006 18.2533 232.58 19.16C234.18 20.04 235.433 21.28 236.34 22.88C237.246 24.48 237.7 26.3467 237.7 28.48C237.7 30.5867 237.246 32.4533 236.34 34.08C235.433 35.68 234.18 36.9333 232.58 37.84C231.006 38.7467 229.22 39.2 227.22 39.2ZM216.38 39V9.32H219.22V24.2L218.82 28.44L219.1 32.68V39H216.38ZM227.02 36.68C228.513 36.68 229.846 36.3467 231.02 35.68C232.193 34.9867 233.126 34.0267 233.82 32.8C234.513 31.5467 234.86 30.1067 234.86 28.48C234.86 26.8267 234.513 25.3867 233.82 24.16C233.126 22.9333 232.193 21.9867 231.02 21.32C229.846 20.6267 228.513 20.28 227.02 20.28C225.526 20.28 224.18 20.6267 222.98 21.32C221.806 21.9867 220.873 22.9333 220.18 24.16C219.513 25.3867 219.18 26.8267 219.18 28.48C219.18 30.1067 219.513 31.5467 220.18 32.8C220.873 34.0267 221.806 34.9867 222.98 35.68C224.18 36.3467 225.526 36.68 227.02 36.68Z" fill="white"/>
</svg>
