<svg width="31" height="20" viewBox="0 0 31 20" fill="none" xmlns="http://www.w3.org/2000/svg">
<path d="M20.5193 18.9889C19.8689 18.7992 19.2455 18.5177 18.6687 18.1505L18.2636 17.8925L17.8695 18.1671C17.1211 18.6887 16.2305 18.9679 15.3182 18.9669L15.3164 18.9669L5.24534 18.982H5.24425H5.23791C4.04364 18.9808 2.89852 18.5064 2.05332 17.6626C1.20823 16.819 0.731847 15.6748 0.728475 14.4807C0.728474 14.4806 0.728474 14.4804 0.728473 14.4803L0.720722 9.20268C0.720722 9.20256 0.720722 9.20245 0.720722 9.20233C0.720392 8.00681 1.19425 6.86001 2.03838 6.0134C2.88251 5.1668 4.02796 4.68957 5.22346 4.6864C5.22359 4.6864 5.22371 4.6864 5.22384 4.6864L15.2943 4.67092H15.2949H15.3024C16.4967 4.67243 17.6417 5.14708 18.4868 5.99093C19.3319 6.83474 19.8082 7.97898 19.8115 9.17318C19.8115 9.17335 19.8115 9.17352 19.8115 9.17369L19.8192 14.4522L19.8192 14.4535C19.8197 14.5843 19.8138 14.7198 19.8017 14.856L19.7988 14.8886L19.7988 14.9213L19.8005 15.8512C19.8005 15.8513 19.8005 15.8513 19.8005 15.8514C19.8023 17.0187 20.0396 18.1169 20.5193 18.9889ZM0.00775453 14.4823C0.0115305 15.8672 0.563983 17.1942 1.54413 18.1727L0.00775453 14.4823Z" stroke="url(#paint0_linear_48_1275)" stroke-width="1.44144"/>
<path d="M28.01 14.9445C27.558 14.08 27.3348 13.0075 27.3348 11.8694V10.935V10.9032L27.3376 10.8714C27.3492 10.74 27.3552 10.6051 27.3552 10.4698L27.3552 5.19204L27.3552 5.19131M28.01 14.9445L22.8859 0C24.2621 0.00175438 25.5813 0.549296 26.5543 1.52251C27.5273 2.49573 28.0745 3.81515 28.0759 5.19131H27.3552M28.01 14.9445C27.3883 14.7537 26.7926 14.478 26.2405 14.1227L25.8338 13.861L25.4374 14.1381C24.6896 14.661 23.799 14.9411 22.8865 14.9404H22.8859H12.8144C11.629 14.9389 10.4926 14.4673 9.6545 13.6291C8.81645 12.7909 8.345 11.6546 8.34352 10.4694V5.1917C8.34482 4.00642 8.81621 2.87004 9.65429 2.03186C10.4923 1.1937 11.6286 0.722176 12.8139 0.720722H22.8854M27.3552 5.19131C27.3538 4.00627 26.8825 2.87014 26.0446 2.03207C25.2067 1.19394 24.0706 0.722351 22.8854 0.720722M27.3552 5.19131L22.8854 0.720722" stroke="url(#paint1_linear_48_1275)" stroke-width="1.44144"/>
<path d="M19.7601 14.9396H12.814C11.6287 14.9383 10.4924 14.4669 9.65424 13.6288C8.8162 12.7908 8.34473 11.6546 8.34328 10.4694V5.19157C8.34339 5.03423 8.35181 4.87713 8.36849 4.72094L12.8747 4.71396L12.8748 4.71396L15.2952 4.70998C15.2953 4.70998 15.2955 4.70998 15.2956 4.70998C16.4808 4.70967 17.6178 5.17945 18.4571 6.01632C19.2964 6.85314 19.7695 7.98867 19.7727 9.17382C19.7727 9.17403 19.7727 9.17424 19.7727 9.17445L19.7805 14.4511C19.7805 14.4515 19.7805 14.4518 19.7805 14.4521C19.7805 14.4521 19.7805 14.4522 19.7805 14.4522C19.7804 14.5895 19.7745 14.7229 19.7629 14.8539L19.76 14.8863L19.7601 14.9188L19.7601 14.9396Z" stroke="url(#paint2_linear_48_1275)" stroke-width="1.44144"/>
<defs>
<linearGradient id="paint0_linear_48_1275" x1="11.3072" y1="3.9502" x2="11.3072" y2="20" gradientUnits="userSpaceOnUse">
<stop stop-color="#7624FE"/>
<stop offset="1" stop-color="#368BFF"/>
</linearGradient>
<linearGradient id="paint1_linear_48_1275" x1="0.180198" y1="10.3604" x2="27.8379" y2="10.2703" gradientUnits="userSpaceOnUse">
<stop stop-color="#7624FE"/>
<stop offset="1" stop-color="#368BFF"/>
</linearGradient>
<linearGradient id="paint2_linear_48_1275" x1="14.0619" y1="3.98926" x2="14.0619" y2="15.6603" gradientUnits="userSpaceOnUse">
<stop stop-color="#7624FE"/>
<stop offset="1" stop-color="#368BFF"/>
</linearGradient>
</defs>
</svg>
