<svg width="20" height="20" viewBox="0 0 20 20" fill="none" xmlns="http://www.w3.org/2000/svg">
<path d="M12.5013 12.5002C11.8383 11.8369 10.9389 11.4641 10.001 11.4639C9.06313 11.4636 8.16357 11.836 7.50022 12.499C6.83688 13.162 6.46409 14.0614 6.46387 14.9993C6.46364 15.9372 6.836 16.8368 7.49902 17.5001L9.99836 20L12.4995 17.4989C12.8278 17.1707 13.0882 16.7811 13.2658 16.3522C13.4435 15.9234 13.5349 15.4637 13.5349 14.9996C13.5349 14.5354 13.4435 14.0757 13.2658 13.6469C13.0882 13.2181 12.8278 12.8284 12.4995 12.5002H12.5013ZM10.9739 15.9349C10.9685 15.9421 10.9613 15.9487 10.9547 15.9559L10.9343 15.9751L9.99896 16.9098L9.04506 15.9583C8.85637 15.7693 8.72787 15.5287 8.67579 15.2668C8.62371 15.0049 8.65037 14.7334 8.75242 14.4866C8.85446 14.2399 9.02732 14.0289 9.24917 13.8802C9.47102 13.7316 9.73192 13.652 9.99896 13.6515C10.2637 13.6516 10.5225 13.7295 10.7433 13.8755C10.9642 14.0215 11.1372 14.2292 11.2409 14.4727C11.3447 14.7162 11.3746 14.9849 11.3269 15.2453C11.2792 15.5057 11.156 15.7463 10.9727 15.9373L10.9739 15.9349Z" fill="#FF5082"/>
<path d="M17.5004 7.49855C17.1722 7.1697 16.7822 6.90906 16.3528 6.73164C15.9235 6.55423 15.4632 6.46356 14.9987 6.46486C14.417 6.46482 13.8444 6.60825 13.3315 6.88243C12.8186 7.15661 12.3812 7.55308 12.0581 8.03671C11.735 8.52033 11.5363 9.07618 11.4794 9.655C11.4225 10.2338 11.5092 10.8177 11.732 11.355C11.9547 11.8923 12.3065 12.3663 12.7562 12.7351C13.206 13.1039 13.7397 13.3561 14.3102 13.4693C14.8807 13.5825 15.4703 13.5532 16.0268 13.3841C16.5832 13.2149 17.0894 12.9111 17.5004 12.4996L20.0003 9.99968L17.5004 7.49855ZM15.9586 10.9542C15.7696 11.1429 15.5289 11.2714 15.2669 11.3235C15.005 11.3755 14.7334 11.3488 14.4867 11.2467C14.2399 11.1446 14.0288 10.9716 13.8803 10.7497C13.7317 10.5278 13.6522 10.2668 13.6518 9.99968C13.6519 9.73497 13.7298 9.47611 13.8758 9.25529C14.0218 9.03448 14.2295 8.86144 14.473 8.7577C14.7165 8.65395 14.9852 8.62407 15.2456 8.67177C15.506 8.71947 15.7466 8.84265 15.9376 9.02599C15.9448 9.03139 15.9514 9.03859 15.9586 9.04518L15.9778 9.06558L16.9125 10.0003L15.9586 10.9542Z" fill="#FF5082"/>
<path d="M7.49921 7.49938C7.17091 7.17108 6.78117 6.91066 6.35223 6.73299C5.92329 6.55531 5.46355 6.46387 4.99927 6.46387C4.53499 6.46387 4.07525 6.55531 3.64631 6.73299C3.21738 6.91066 2.82763 7.17108 2.49934 7.49938L0 10.0005L2.49994 12.5005C2.82802 12.829 3.21772 13.0896 3.64671 13.2673C4.0757 13.445 4.53554 13.5363 4.99987 13.5359C5.69931 13.5361 6.38307 13.3287 6.96464 12.9401C7.54621 12.5516 7.99945 11.9992 8.26701 11.353C8.53458 10.7067 8.60444 9.99564 8.46777 9.30968C8.3311 8.62372 7.99403 7.99372 7.49921 7.49938ZM6.35033 9.99992C6.34971 10.2667 6.27017 10.5273 6.12172 10.749C5.97327 10.9706 5.76255 11.1434 5.5161 11.2455C5.26965 11.3476 4.99849 11.3745 4.73677 11.3228C4.47506 11.2711 4.23449 11.1432 4.04537 10.955L3.09147 10.0005L4.02617 9.06582C4.03157 9.05922 4.03877 9.05202 4.04537 9.04542C4.05197 9.03882 4.05917 9.03162 4.06637 9.02622C4.25732 8.84288 4.49795 8.7197 4.75833 8.67201C5.01872 8.62431 5.28738 8.65419 5.53093 8.75793C5.77447 8.86168 5.98215 9.03471 6.12815 9.25553C6.27416 9.47634 6.35204 9.7352 6.35213 9.99992H6.35033Z" fill="#FF5082"/>
<path d="M12.5002 2.49994L10.0003 0L7.49917 2.49994C7.00465 2.99434 6.66785 3.62429 6.53137 4.31012C6.39489 4.99595 6.46486 5.70685 6.73242 6.35291C6.99999 6.99897 7.45313 7.55118 8.03454 7.93969C8.61596 8.32821 9.29953 8.53557 9.99881 8.53557C10.6981 8.53557 11.3817 8.32821 11.9631 7.93969C12.5445 7.55118 12.9976 6.99897 13.2652 6.35291C13.5328 5.70685 13.6027 4.99595 13.4662 4.31012C13.3298 3.62429 12.993 2.99434 12.4984 2.49994H12.5002ZM10.9548 5.95497C10.8297 6.08069 10.681 6.1804 10.5171 6.24836C10.3533 6.31632 10.1777 6.35118 10.0003 6.35093C9.73327 6.35043 9.47236 6.27084 9.25051 6.12221C9.02866 5.97358 8.85581 5.76257 8.75376 5.5158C8.65172 5.26903 8.62506 4.99756 8.67714 4.73565C8.72922 4.47374 8.85771 4.23313 9.04641 4.04417L10.0003 3.09027L10.9356 4.02497C10.9422 4.03037 10.9488 4.03757 10.956 4.04417C10.9632 4.05077 10.9698 4.05797 10.9752 4.06517C11.2198 4.32016 11.3547 4.6609 11.3509 5.01424C11.3471 5.36757 11.2049 5.70532 10.9548 5.95497Z" fill="#FF5082"/>
<path d="M3.64998 17.7013C3.46933 17.7067 3.28944 17.6757 3.12096 17.6103C2.95248 17.5449 2.79884 17.4464 2.66916 17.3205C2.53947 17.1946 2.43637 17.044 2.36596 16.8775C2.29556 16.7111 2.25928 16.5322 2.25928 16.3514C2.25928 16.1707 2.29556 15.9918 2.36596 15.8254C2.43637 15.6589 2.53947 15.5083 2.66916 15.3824C2.79884 15.2565 2.95248 15.1579 3.12096 15.0925C3.28944 15.0271 3.46933 14.9962 3.64998 15.0016H4.99984V16.3514C4.99984 16.7094 4.85762 17.0528 4.60448 17.3059C4.35133 17.5591 4.00799 17.7013 3.64998 17.7013Z" fill="#FF5082"/>
<path d="M5.00094 5.00093H3.64329C3.37636 4.99962 3.1158 4.91928 2.89449 4.77003C2.67318 4.62079 2.50103 4.40933 2.39979 4.16234C2.29854 3.91536 2.27272 3.64391 2.3256 3.38227C2.37847 3.12063 2.50767 2.88051 2.69687 2.69222C2.88608 2.50393 3.12683 2.37591 3.38873 2.32431C3.65062 2.27271 3.92194 2.29985 4.16843 2.4023C4.41491 2.50475 4.62553 2.67792 4.7737 2.89995C4.92187 3.12199 5.00094 3.38294 5.00094 3.64987V5.00093Z" fill="#FF5082"/>
<path d="M17.3059 17.307C17.1179 17.4953 16.8786 17.624 16.6178 17.6768C16.357 17.7297 16.0864 17.7043 15.84 17.604C15.5936 17.5036 15.3823 17.3328 15.2326 17.1128C15.0829 16.8928 15.0015 16.6335 14.9985 16.3675C14.9985 16.3489 14.9985 16.3303 14.9985 16.3129V14.999H16.3334H16.3874C16.6146 15.0047 16.8366 15.0683 17.0323 15.1838C17.1853 15.2737 17.319 15.3928 17.4259 15.5344C17.5328 15.6759 17.6108 15.8372 17.6554 16.0089C17.6999 16.1806 17.7102 16.3594 17.6857 16.5351C17.6611 16.7108 17.6022 16.8799 17.5123 17.0328C17.4552 17.1325 17.3859 17.2246 17.3059 17.307Z" fill="#FF5082"/>
<path d="M17.3077 2.6949C17.4948 2.88226 17.6226 3.12048 17.6754 3.37992C17.7281 3.63937 17.7035 3.9086 17.6045 4.15415C17.5054 4.39969 17.3364 4.61071 17.1184 4.76096C16.9004 4.91122 16.6431 4.99409 16.3784 4.99926C16.369 4.99987 16.3596 4.99987 16.3502 4.99926C16.3408 4.99988 16.3314 4.99988 16.322 4.99926H14.9985V3.65C14.9985 3.38288 15.0777 3.12174 15.226 2.8996C15.3744 2.67745 15.5852 2.50426 15.832 2.40192C16.0787 2.29958 16.3502 2.27268 16.6123 2.32461C16.8743 2.37654 17.115 2.50498 17.3041 2.6937L17.3077 2.6949Z" fill="#FF5082"/>
</svg>
