<svg width="62" height="41" viewBox="0 0 62 41" fill="none" xmlns="http://www.w3.org/2000/svg">
<path d="M42.0644 38.9274C40.7311 38.5385 39.4532 37.9615 38.2707 37.2086L37.4402 36.6798L36.6324 37.2427C35.0981 38.312 33.2724 38.8843 31.4023 38.8823L31.3985 38.8823L10.7529 38.9133L10.7507 38.9133L10.7377 38.9133C8.28943 38.9108 5.94195 37.9383 4.20929 36.2086C2.47686 34.4791 1.50029 32.1336 1.49337 29.6857C1.49337 29.6854 1.49337 29.6851 1.49337 29.6848L1.47748 18.8657C1.47748 18.8655 1.47748 18.8652 1.47748 18.865C1.47681 16.4142 2.44822 14.0632 4.17868 12.3277C5.90915 10.5922 8.25734 9.61384 10.7081 9.60736C10.7084 9.60736 10.7086 9.60736 10.7088 9.60736L31.3532 9.57562H31.3544H31.3699C33.8181 9.57875 36.1653 10.5518 37.8978 12.2816C39.6302 14.0115 40.6066 16.3572 40.6134 18.8053C40.6134 18.8056 40.6134 18.806 40.6134 18.8063L40.6293 29.6271L40.6293 29.6298C40.6302 29.898 40.6183 30.1758 40.5933 30.4551L40.5874 30.5219L40.5875 30.5889L40.5908 32.4952C40.5908 32.4953 40.5908 32.4954 40.5908 32.4954C40.5946 34.8884 41.081 37.1399 42.0644 38.9274Z" stroke="url(#paint0_linear_886_1444)" stroke-width="2.95495"/>
<path d="M56.0364 24.3323C56.0364 26.6654 56.494 28.864 57.4206 30.6361C56.146 30.245 54.9249 29.6798 53.7931 28.9514L52.9594 28.4149L52.1468 28.983C50.6139 30.055 48.7881 30.6292 46.9174 30.6278H46.9162H26.2697C23.8397 30.6247 21.5101 29.6579 19.7919 27.9395C18.0739 26.2213 17.1074 23.8919 17.1044 21.4622V10.643C17.1071 8.21315 18.0734 5.88356 19.7915 4.1653C21.5095 2.44707 23.8389 1.48045 26.2687 1.47747H46.9153C49.3448 1.48081 51.6738 2.44757 53.3916 4.16574C55.1095 5.88412 56.0757 8.2138 56.0782 10.6437V21.4631C56.0782 21.7404 56.066 22.0169 56.0421 22.2863L56.0364 22.3514V22.4168V24.3323Z" stroke="url(#paint1_linear_886_1444)" stroke-width="2.95495"/>
<path d="M40.5079 30.6274H26.2685C23.8386 30.6247 21.5091 29.6584 19.7909 27.9403C18.0729 26.2224 17.1064 23.893 17.1035 21.4635V10.6439C17.1037 10.3214 17.1209 9.99934 17.1551 9.67914L26.3929 9.66484L26.393 9.66484L31.3548 9.65667C31.3551 9.65667 31.3554 9.65667 31.3557 9.65667C33.7854 9.65605 36.1162 10.6191 37.8367 12.3347C39.5576 14.0504 40.5275 16.3788 40.5337 18.8088L40.5496 29.626C40.5496 29.6262 40.5496 29.6265 40.5496 29.6268C40.5496 29.9087 40.5374 30.1826 40.5136 30.4516L40.5077 30.518L40.5078 30.5847L40.5079 30.6274Z" stroke="url(#paint2_linear_886_1444)" stroke-width="2.95495"/>
<defs>
<linearGradient id="paint0_linear_886_1444" x1="23.1798" y1="8.09814" x2="23.1798" y2="41.0001" gradientUnits="userSpaceOnUse">
<stop stop-color="#7624FE"/>
<stop offset="1" stop-color="#368BFF"/>
</linearGradient>
<linearGradient id="paint1_linear_886_1444" x1="0.36966" y1="21.2387" x2="57.0678" y2="21.054" gradientUnits="userSpaceOnUse">
<stop stop-color="#7624FE"/>
<stop offset="1" stop-color="#368BFF"/>
</linearGradient>
<linearGradient id="paint2_linear_886_1444" x1="28.8265" y1="8.1792" x2="28.8265" y2="32.1048" gradientUnits="userSpaceOnUse">
<stop stop-color="#7624FE"/>
<stop offset="1" stop-color="#368BFF"/>
</linearGradient>
</defs>
</svg>
